<svg width="416" height="384" viewBox="0 0 416 384" fill="none" xmlns="http://www.w3.org/2000/svg">
<path d="M376 88H320V80C320 71.176 312.824 64 304 64V40C304 17.944 286.056 0 264 0H152C129.944 0 112 17.944 112 40V64C103.176 64 96 71.176 96 80V88H40C17.944 88 0 105.944 0 128V344C0 366.056 17.944 384 40 384H376C398.056 384 416 366.056 416 344V128C416 105.944 398.056 88 376 88ZM256 88V80H304V88H256ZM160 64V48H256V64C247.176 64 240 71.176 240 80V88H176V80C176 71.176 168.824 64 160 64ZM128 40C128 26.768 138.768 16 152 16H264C277.232 16 288 26.768 288 40V64H272V48C272 39.176 264.824 32 256 32H160C151.176 32 144 39.176 144 48V64H128V40ZM112 80H160V88H112V80ZM40 104H376C389.232 104 400 114.768 400 128V134.112L361.68 210.744C357.592 218.92 349.376 224 340.232 224H288V200C288 191.176 280.824 184 272 184H256C247.176 184 240 191.176 240 200V224H176V200C176 191.176 168.824 184 160 184H144C135.176 184 128 191.176 128 200V224H75.768C66.624 224 58.408 218.92 54.32 210.744L16 134.112V128C16 114.768 26.768 104 40 104ZM272 200V256C272 260.416 268.416 264 264 264C259.584 264 256 260.416 256 256V200H272ZM160 200V256C160 260.416 156.416 264 152 264C147.584 264 144 260.416 144 256V200H160ZM376 368H40C26.768 368 16 357.232 16 344V169.888L40.008 217.896C46.824 231.528 60.52 240 75.768 240H128V256C128 269.232 138.768 280 152 280C165.232 280 176 269.232 176 256V240H240V256C240 269.232 250.768 280 264 280C277.232 280 288 269.232 288 256V240H340.232C355.472 240 369.176 231.528 375.992 217.896L400 169.888V344C400 357.232 389.232 368 376 368Z" fill="url(#paint0_linear)"/>
<path d="M160 120H256V136H160V120Z" fill="url(#paint1_linear)"/>
<defs>
<linearGradient id="paint0_linear" x1="208" y1="0" x2="208" y2="384" gradientUnits="userSpaceOnUse">
<stop stop-color="white" stop-opacity="0.5"/>
<stop offset="1" stop-color="#8D3DAF"/>
</linearGradient>
<linearGradient id="paint1_linear" x1="208" y1="120" x2="208" y2="136" gradientUnits="userSpaceOnUse">
<stop stop-color="white" stop-opacity="0.5"/>
<stop offset="1" stop-color="#8D3DAF"/>
</linearGradient>
</defs>
</svg>
