<svg width="512" height="506" viewBox="0 0 512 506" fill="none" xmlns="http://www.w3.org/2000/svg">
<path d="M97.689 403.34L78.5303 345.364L59.3717 403.34H0L47.6748 443.585L28.4758 505.74L78.5303 467.495L128.585 505.74L109.386 443.585L157.061 403.34H97.689ZM98.2698 462.276L78.5303 447.199L58.7909 462.284L66.2446 438.156L44.1254 419.474H71.0282L78.5303 396.782L86.0325 419.474H112.935L90.8161 438.148L98.2698 462.276Z" fill="url(#paint0_linear)"/>
<path d="M512 403.34H452.628L433.47 345.364L414.311 403.34H354.939L402.614 443.585L383.415 505.74L433.47 467.495L483.524 505.74L464.325 443.585L512 403.34ZM433.47 447.199L413.73 462.284L421.184 438.156L399.065 419.474H425.968L433.47 396.782L440.972 419.474H467.875L445.756 438.148L453.209 462.276L433.47 447.199Z" fill="url(#paint1_linear)"/>
<path d="M320.002 228.637C343.888 235.551 360.869 257.452 360.869 282.677V387.207H377.002V282.677C377.002 248.191 352.455 218.247 318.639 211.487L305.272 208.809C299.028 207.559 294.092 202.735 292.696 196.515L289.542 182.447C296.939 176.953 302.933 169.717 306.934 161.328H312.468C330.263 161.328 344.735 146.856 344.735 129.061C344.735 121.793 342.234 115.154 338.16 109.757L340.758 101.964C343.396 94.0589 344.735 85.8147 344.735 77.4736C344.735 34.7518 309.983 0 267.261 0H244.739C202.017 0 167.265 34.7518 167.265 77.4736C167.265 85.8147 168.604 94.0589 171.242 101.972L173.84 109.765C169.766 115.162 167.265 121.801 167.265 129.069C167.265 146.864 181.737 161.336 199.532 161.336H205.058C209.059 169.726 215.061 176.961 222.45 182.455L219.296 196.523C217.901 202.743 212.964 207.567 206.712 208.817L193.353 211.495C159.545 218.247 134.998 248.191 134.998 282.677V387.207H151.132V282.677C151.132 257.452 168.104 235.551 191.99 228.637C195.346 268.802 215.731 306.071 247.933 330.57V369.774L236.841 403.34H177.47L225.145 443.585L205.946 505.74L256 467.495L306.055 505.74L286.856 443.585L334.53 403.34H275.159L264.067 369.774V330.65C296.294 306.151 316.646 268.818 320.002 228.637V228.637ZM256 316.219C250.958 312.234 246.247 307.926 241.907 303.271L246.167 286.242H265.834L270.093 303.271C265.753 307.926 261.042 312.234 256 316.219V316.219ZM256.032 245.852L256 245.908L255.968 245.86L256 245.82L256.032 245.852ZM256 255.314L268.705 262.937L266.318 270.109H245.675L243.287 262.937L256 255.314ZM280.531 278.498L282.879 271.448L289.873 275.643C287.735 279.724 285.347 283.669 282.774 287.501L280.531 278.498ZM229.121 271.44L231.469 278.49L229.218 287.501C226.653 283.669 224.257 279.724 222.12 275.643L229.121 271.44ZM303.917 224.991C303.118 237.309 300.658 249.353 296.431 260.751L270.036 244.916L297.181 223.2C298.77 223.797 300.416 224.289 302.11 224.628L303.917 224.991ZM312.468 145.202H311.822C312.201 142.557 312.468 139.878 312.468 137.136V112.935C321.365 112.935 328.601 120.171 328.601 129.069C328.601 137.967 321.365 145.202 312.468 145.202ZM244.739 16.1336H267.261C301.085 16.1336 328.601 43.6495 328.601 77.4736C328.601 84.0803 327.545 90.6063 325.455 96.8662L324.665 99.2297C320.898 97.689 316.783 96.8016 312.468 96.8016H310.983C307.644 87.4361 298.77 80.668 288.267 80.668H272.134C258.791 80.668 247.933 69.8101 247.933 56.4676V32.2672H231.8V56.4676C231.8 58.3956 231.937 60.2913 232.195 62.1386L219.812 67.0916C207.567 71.9882 199.653 83.6366 199.549 96.8016H199.532C195.217 96.8016 191.103 97.689 187.335 99.2297L186.545 96.8662C184.456 90.6063 183.399 84.0803 183.399 77.4736C183.399 43.6495 210.915 16.1336 244.739 16.1336V16.1336ZM199.532 145.202C190.635 145.202 183.399 137.967 183.399 129.069C183.399 120.171 190.635 112.935 199.532 112.935V137.136C199.532 139.878 199.799 142.557 200.178 145.202H199.532ZM215.666 137.136V97.0517C215.666 90.4127 219.651 84.532 225.806 82.0717L237.632 77.3445C244.715 89.001 257.525 96.8016 272.134 96.8016H288.267C292.712 96.8016 296.334 100.424 296.334 104.868V137.136C296.334 159.376 278.24 177.47 256 177.47C233.76 177.47 215.666 159.376 215.666 137.136ZM256 193.603C262.591 193.603 268.891 192.409 274.78 190.328L276.958 200.057C278.087 205.082 280.41 209.616 283.564 213.448L256 235.486L228.436 213.44C231.582 209.608 233.913 205.082 235.034 200.049L237.213 190.32C243.109 192.409 249.41 193.603 256 193.603V193.603ZM214.819 223.2L241.964 244.916L215.569 260.751C211.342 249.353 208.89 237.309 208.083 224.991L209.882 224.628C211.584 224.297 213.23 223.797 214.819 223.2V223.2ZM290.405 419.474L268.286 438.148L275.74 462.276L256 447.199L236.261 462.284L243.714 438.156L221.595 419.474H248.498L256 396.782L263.502 419.474H290.405Z" fill="url(#paint2_linear)"/>
<path d="M425.403 258.138C469.883 258.138 506.071 221.95 506.071 177.47C506.071 158.174 499.246 140.459 487.904 126.56L503.74 110.539L492.261 99.1975L476.514 115.121C462.599 103.683 444.787 96.8016 425.403 96.8016C380.923 96.8016 344.735 132.989 344.735 177.47C344.735 221.95 380.923 258.138 425.403 258.138ZM425.403 112.935C440.375 112.935 454.129 118.106 465.092 126.689L410.262 182.165L399.863 171.766L388.457 183.173L410.326 205.042L476.458 138.144C484.871 149.05 489.937 162.659 489.937 177.47C489.937 213.052 460.986 242.004 425.403 242.004C389.82 242.004 360.868 213.052 360.868 177.47C360.868 141.887 389.82 112.935 425.403 112.935V112.935Z" fill="url(#paint3_linear)"/>
<defs>
<linearGradient id="paint0_linear" x1="78.5303" y1="345.364" x2="78.5303" y2="505.74" gradientUnits="userSpaceOnUse">
<stop stop-color="white" stop-opacity="0.5"/>
<stop offset="1" stop-color="#8D3DAF"/>
</linearGradient>
<linearGradient id="paint1_linear" x1="433.47" y1="345.364" x2="433.47" y2="505.74" gradientUnits="userSpaceOnUse">
<stop stop-color="white" stop-opacity="0.5"/>
<stop offset="1" stop-color="#8D3DAF"/>
</linearGradient>
<linearGradient id="paint2_linear" x1="256" y1="0" x2="256" y2="505.74" gradientUnits="userSpaceOnUse">
<stop stop-color="white" stop-opacity="0.5"/>
<stop offset="1" stop-color="#8D3DAF"/>
</linearGradient>
<linearGradient id="paint3_linear" x1="425.403" y1="96.8016" x2="425.403" y2="258.138" gradientUnits="userSpaceOnUse">
<stop stop-color="white" stop-opacity="0.5"/>
<stop offset="1" stop-color="#8D3DAF"/>
</linearGradient>
</defs>
</svg>
